<?xml version="1.0" standalone="no"?>
<svg xmlns:xlink="http://www.w3.org/1999/xlink" id="wave" style="transform:rotate(180deg); transition: 0.3s" viewBox="0 0 1440 100" version="1.1" xmlns="http://www.w3.org/2000/svg"><defs><linearGradient id="sw-gradient-0" x1="0" x2="0" y1="1" y2="0"><stop stop-color="rgba(248, 213, 97, 1)" offset="0%"/><stop stop-color="rgba(250.553, 102.378, 0, 1)" offset="100%"/></linearGradient></defs><path style="transform:translate(0, 0px); opacity:1" fill="url(#sw-gradient-0)" d="M0,0L26.7,11.7C53.3,23,107,47,160,50C213.3,53,267,37,320,30C373.3,23,427,27,480,35C533.3,43,587,57,640,60C693.3,63,747,57,800,45C853.3,33,907,17,960,18.3C1013.3,20,1067,40,1120,53.3C1173.3,67,1227,73,1280,73.3C1333.3,73,1387,67,1440,53.3C1493.3,40,1547,20,1600,11.7C1653.3,3,1707,7,1760,15C1813.3,23,1867,37,1920,43.3C1973.3,50,2027,50,2080,45C2133.3,40,2187,30,2240,33.3C2293.3,37,2347,53,2400,56.7C2453.3,60,2507,50,2560,48.3C2613.3,47,2667,53,2720,56.7C2773.3,60,2827,60,2880,51.7C2933.3,43,2987,27,3040,30C3093.3,33,3147,57,3200,66.7C3253.3,77,3307,73,3360,65C3413.3,57,3467,43,3520,33.3C3573.3,23,3627,17,3680,21.7C3733.3,27,3787,43,3813,51.7L3840,60L3840,100L3813.3,100C3786.7,100,3733,100,3680,100C3626.7,100,3573,100,3520,100C3466.7,100,3413,100,3360,100C3306.7,100,3253,100,3200,100C3146.7,100,3093,100,3040,100C2986.7,100,2933,100,2880,100C2826.7,100,2773,100,2720,100C2666.7,100,2613,100,2560,100C2506.7,100,2453,100,2400,100C2346.7,100,2293,100,2240,100C2186.7,100,2133,100,2080,100C2026.7,100,1973,100,1920,100C1866.7,100,1813,100,1760,100C1706.7,100,1653,100,1600,100C1546.7,100,1493,100,1440,100C1386.7,100,1333,100,1280,100C1226.7,100,1173,100,1120,100C1066.7,100,1013,100,960,100C906.7,100,853,100,800,100C746.7,100,693,100,640,100C586.7,100,533,100,480,100C426.7,100,373,100,320,100C266.7,100,213,100,160,100C106.7,100,53,100,27,100L0,100Z"/></svg>